<svg xmlns="http://www.w3.org/2000/svg" xmlns:xlink="http://www.w3.org/1999/xlink" width="1080" zoomAndPan="magnify" viewBox="0 0 810 809.999993" height="1080" preserveAspectRatio="xMidYMid meet" version="1.0"><defs><clipPath id="73d6efd799"><path d="M 10 95.726562 L 799 95.726562 L 799 707 L 10 707 Z M 10 95.726562 " clip-rule="nonzero"/></clipPath><clipPath id="a9f06b2403"><path d="M 0 687 L 810 687 L 810 714.476562 L 0 714.476562 Z M 0 687 " clip-rule="nonzero"/></clipPath></defs><g clip-path="url(#73d6efd799)"><path fill="#f4f4f4" d="M 11.035156 705.664062 C 11.921875 705.960938 13.109375 705.960938 14 705.960938 C 37.140625 700.621094 60.574219 696.171875 84.308594 692.609375 C 95.878906 690.238281 107.746094 688.160156 119.613281 686.378906 C 121.390625 686.082031 123.46875 685.785156 125.839844 685.195312 C 134.445312 683.117188 143.046875 681.632812 151.652344 679.261719 C 161.738281 676.292969 177.757812 673.03125 200.304688 669.175781 C 201.492188 668.878906 202.378906 668.582031 203.269531 667.988281 C 203.269531 667.988281 203.269531 668.285156 203.269531 668.582031 L 203.269531 668.878906 C 203.269531 669.175781 203.269531 669.175781 203.566406 669.175781 L 321.933594 660.570312 C 387.792969 655.824219 453.355469 656.714844 519.214844 662.945312 C 552.144531 665.316406 580.03125 667.394531 602.875 669.46875 C 611.773438 670.359375 621.859375 673.03125 629.871094 674.515625 C 646.777344 677.480469 664.28125 682.226562 680.300781 684.898438 C 695.136719 687.566406 710.5625 690.832031 724.207031 693.203125 C 736.074219 695.28125 747.941406 697.058594 759.808594 698.839844 C 765.148438 700.027344 770.191406 701.214844 775.53125 701.804688 C 782.351562 702.695312 789.175781 705.070312 796.296875 705.960938 C 799.558594 706.257812 799.558594 705.960938 796.59375 704.773438 L 763.070312 691.125 C 749.425781 686.082031 735.777344 681.039062 722.132812 675.699219 C 707.890625 670.359375 692.167969 665.019531 677.335938 659.382812 C 663.390625 654.339844 645 648.40625 621.5625 642.175781 C 620.96875 642.175781 620.671875 641.585938 620.671875 641.289062 L 620.96875 622.003906 C 620.671875 562.96875 620.375 504.230469 620.375 445.195312 C 620.375 401.882812 619.78125 358.570312 620.078125 315.257812 C 620.078125 310.808594 620.375 306.355469 620.671875 302.203125 C 620.671875 301.3125 620.078125 300.71875 619.484375 300.71875 C 617.113281 300.421875 615.628906 298.050781 614.144531 297.160156 C 601.6875 288.261719 588.929688 279.359375 576.765625 269.570312 C 571.128906 265.121094 564.902344 261.5625 559.265625 257.40625 C 558.375 256.816406 558.078125 255.628906 558.375 254.738281 L 559.265625 252.660156 C 559.5625 251.769531 560.152344 251.476562 561.042969 252.066406 C 579.4375 264.824219 596.941406 278.175781 614.441406 292.414062 C 615.628906 293.304688 616.222656 293.007812 616.519531 291.523438 L 617.410156 286.777344 C 617.707031 285.589844 617.113281 284.402344 616.222656 283.8125 L 554.8125 236.34375 C 554.515625 236.046875 554.222656 235.75 554.222656 235.453125 L 553.925781 234.863281 C 553.628906 234.566406 553.332031 234.269531 553.035156 234.566406 C 544.429688 238.71875 535.828125 242.277344 526.632812 244.652344 L 522.179688 246.132812 L 521.882812 231.894531 C 523.070312 228.632812 523.070312 226.257812 521.589844 224.773438 C 520.996094 223.886719 520.402344 223.292969 519.511719 222.699219 C 471.453125 185.320312 425.171875 145.269531 377.707031 107 C 373.257812 103.441406 369.105469 99.582031 364.949219 95.726562 C 364.652344 95.726562 364.652344 95.726562 364.355469 96.023438 C 361.390625 101.957031 359.015625 109.078125 356.644531 114.417969 C 348.335938 131.921875 339.734375 149.421875 331.132812 166.628906 C 330.242188 168.113281 329.351562 171.375 328.460938 176.417969 C 328.460938 177.011719 328.460938 177.308594 328.757812 177.902344 C 330.539062 180.871094 331.132812 184.132812 331.132812 187.394531 C 331.132812 188.582031 331.722656 188.878906 332.613281 188.285156 L 334.097656 187.691406 C 335.285156 187.394531 335.878906 186.503906 336.175781 185.320312 C 336.472656 183.242188 336.769531 182.054688 337.066406 181.460938 C 345.371094 168.410156 353.382812 155.355469 361.09375 142.007812 C 362.578125 139.335938 364.652344 136.667969 366.730469 134.589844 C 367.917969 133.402344 369.402344 133.402344 370.882812 134.292969 C 415.976562 169.894531 460.476562 204.898438 504.382812 239.3125 C 510.613281 244.355469 517.136719 248.507812 523.960938 251.769531 C 524.554688 252.066406 524.554688 252.363281 524.554688 252.957031 L 524.554688 619.335938 C 524.554688 619.632812 524.257812 619.929688 523.960938 619.929688 L 500.226562 614.886719 C 499.929688 614.886719 499.636719 614.589844 499.636719 613.996094 L 499.636719 563.859375 C 499.636719 563.5625 499.339844 562.96875 498.746094 562.96875 L 481.242188 560.300781 C 480.054688 560.003906 479.757812 560.597656 480.648438 561.484375 C 482.132812 563.5625 483.023438 566.230469 483.023438 569.496094 C 483.023438 581.957031 482.726562 594.710938 482.429688 607.171875 C 482.429688 608.0625 482.726562 609.25 483.023438 610.730469 C 483.320312 611.621094 483.023438 611.917969 482.132812 611.621094 L 479.460938 611.324219 C 478.570312 611.324219 478.277344 610.730469 478.277344 610.136719 L 477.683594 560.597656 C 477.683594 560.003906 477.386719 559.707031 477.089844 559.707031 L 460.476562 555.550781 C 459.882812 555.550781 459.585938 555.550781 459.585938 556.144531 L 459.585938 607.171875 C 459.585938 608.0625 459.289062 608.359375 458.398438 608.0625 L 456.027344 607.171875 C 455.433594 606.875 455.136719 606.578125 455.136719 605.984375 L 455.136719 554.960938 C 455.136719 554.664062 454.839844 554.367188 454.542969 554.070312 L 439.710938 551.101562 C 439.710938 551.101562 439.710938 551.101562 439.414062 551.101562 C 438.820312 551.101562 438.523438 551.398438 438.523438 551.992188 L 438.226562 603.613281 C 438.226562 604.203125 437.929688 604.5 437.335938 604.5 L 436.148438 604.5 C 435.554688 604.5 435.257812 603.910156 435.257812 603.613281 L 435.257812 551.101562 C 435.257812 550.804688 434.960938 550.507812 434.667969 550.507812 L 421.019531 546.949219 C 420.722656 546.949219 420.425781 546.949219 420.425781 547.246094 L 420.722656 601.832031 C 420.722656 602.425781 420.128906 602.722656 419.535156 602.722656 L 401.738281 600.050781 C 400.253906 599.753906 399.066406 599.753906 397.582031 600.050781 L 372.367188 603.316406 C 372.367188 603.316406 372.367188 603.316406 372.070312 603.316406 C 371.476562 603.316406 370.882812 602.722656 370.882812 602.128906 C 371.773438 550.210938 370.585938 498.890625 371.476562 446.972656 C 371.476562 437.777344 371.773438 428.582031 371.476562 419.089844 C 371.179688 381.414062 370.882812 343.734375 371.179688 306.058594 C 371.179688 291.523438 370.882812 272.835938 371.179688 255.925781 C 371.476562 237.53125 371.476562 220.621094 371.179688 200.746094 C 371.179688 189.472656 371.476562 177.902344 371.179688 166.925781 C 370.882812 156.542969 371.179688 147.050781 369.402344 136.667969 C 369.402344 136.667969 369.402344 136.371094 369.105469 136.371094 C 368.808594 136.074219 368.511719 136.371094 368.511719 136.667969 C 364.949219 142.007812 361.6875 147.644531 358.425781 153.578125 C 355.753906 158.917969 352.195312 163.664062 349.226562 169.003906 C 347.746094 171.671875 342.699219 179.386719 342.109375 183.242188 C 341.515625 187.988281 341.515625 195.40625 341.8125 205.789062 C 342.109375 216.765625 342.40625 224.183594 342.40625 228.335938 C 342.699219 270.460938 342.996094 312.289062 343.292969 354.121094 L 343.886719 427.394531 L 343.589844 481.683594 L 343.292969 541.90625 C 343.589844 554.367188 343.292969 567.121094 342.699219 579.582031 C 342.699219 581.066406 341.8125 581.957031 341.8125 583.4375 C 345.667969 584.625 349.820312 585.21875 353.972656 584.921875 C 354.566406 584.921875 354.566406 585.21875 354.566406 585.515625 L 354.269531 602.722656 C 354.269531 604.5 353.382812 605.6875 351.601562 605.6875 L 330.835938 608.359375 C 330.539062 608.359375 330.242188 608.0625 330.242188 607.46875 L 330.835938 325.34375 C 330.835938 325.046875 330.835938 324.75 330.835938 324.75 L 331.429688 323.265625 C 331.726562 322.671875 331.429688 322.078125 330.835938 321.785156 L 285.742188 295.972656 C 285.445312 295.675781 285.148438 295.675781 284.554688 295.972656 C 271.503906 307.542969 259.636719 320.894531 248.066406 331.871094 C 235.605469 344.03125 219.882812 359.757812 204.753906 372.808594 C 204.457031 373.105469 204.160156 373.402344 204.160156 373.996094 L 203.566406 407.816406 C 203.566406 409.59375 204.160156 409.890625 205.347656 408.410156 C 211.578125 400.992188 218.398438 393.871094 230.859375 383.785156 C 232.9375 382.003906 234.714844 380.523438 235.902344 378.742188 C 238.277344 376.074219 240.945312 374.886719 243.023438 372.808594 C 252.8125 364.207031 262.601562 355.601562 272.984375 346.40625 C 273.578125 345.8125 274.46875 345.8125 274.765625 346.703125 C 277.4375 351.449219 272.09375 355.601562 268.832031 358.570312 C 252.21875 373.402344 235.605469 387.9375 218.695312 402.476562 C 214.246094 406.332031 209.796875 410.484375 205.644531 414.933594 C 201.492188 419.089844 197.929688 421.460938 192.886719 424.429688 C 190.808594 425.613281 190.21875 427.097656 190.808594 429.472656 L 191.105469 430.363281 C 191.699219 432.4375 192.886719 433.03125 194.667969 431.84375 C 211.28125 420.570312 225.519531 405.441406 241.539062 393.277344 C 243.914062 391.5 245.988281 389.125 247.769531 387.640625 C 258.746094 380.820312 267.644531 373.402344 276.546875 365.6875 C 277.4375 365.097656 278.027344 364.503906 278.917969 364.207031 C 279.214844 364.207031 279.511719 363.910156 279.511719 364.207031 C 280.105469 364.207031 280.402344 364.800781 280.105469 365.390625 C 278.027344 373.105469 278.027344 379.929688 278.027344 387.640625 C 277.730469 404.550781 277.730469 421.164062 278.027344 438.074219 C 278.324219 447.269531 277.4375 458.246094 277.730469 468.335938 C 278.027344 473.96875 277.140625 480.199219 277.4375 486.132812 C 278.621094 523.808594 277.4375 561.78125 277.140625 599.457031 L 276.25 619.929688 C 276.25 620.226562 275.953125 620.519531 275.65625 620.519531 C 275.0625 620.519531 274.46875 620.816406 273.875 620.816406 C 274.171875 613.996094 274.171875 600.050781 274.171875 599.457031 C 274.171875 596.492188 273.875 593.226562 273.875 590.261719 C 273.875 553.476562 273.578125 516.988281 273.578125 480.199219 C 273.578125 445.789062 273.875 411.375 274.171875 376.664062 C 274.171875 376.664062 274.171875 376.367188 273.875 376.367188 C 273.578125 376.074219 273.28125 376.074219 273.28125 376.367188 C 267.347656 382.003906 261.414062 387.34375 254.890625 392.980469 C 251.625 395.652344 252.21875 399.210938 252.515625 403.363281 C 252.8125 412.265625 251.921875 424.726562 252.21875 435.703125 C 252.515625 439.855469 252.515625 443.710938 252.515625 446.675781 C 252.21875 498.59375 252.21875 573.648438 252.515625 626.453125 C 251.328125 626.75 250.144531 627.046875 248.957031 627.34375 C 248.957031 570.386719 249.550781 489.992188 249.253906 433.328125 C 249.253906 422.351562 249.253906 411.375 249.847656 400.101562 C 249.847656 398.023438 248.957031 397.433594 247.175781 398.617188 C 241.539062 402.179688 236.199219 406.925781 230.859375 412.5625 C 230.265625 413.453125 229.96875 414.046875 229.96875 414.933594 C 230.265625 415.824219 230.265625 416.417969 230.265625 416.417969 C 229.96875 464.179688 229.671875 512.238281 229.96875 560.003906 L 229.96875 631.792969 C 229.078125 632.089844 228.488281 632.089844 227.597656 632.386719 L 227.300781 540.125 L 227.894531 415.527344 C 227.894531 415.527344 227.894531 415.230469 227.894531 415.230469 C 227.597656 414.933594 227.300781 414.933594 227.003906 415.230469 L 199.710938 437.480469 C 199.117188 438.074219 198.820312 438.667969 198.820312 439.558594 L 199.117188 462.105469 L 199.117188 503.042969 L 199.414062 639.210938 C 199.414062 633.574219 199.117188 617.851562 198.820312 617.851562 L 198.523438 617.851562 C 197.929688 617.554688 197.632812 636.539062 197.335938 639.804688 C 196.742188 628.234375 196.445312 595.007812 196.742188 583.4375 C 197.335938 564.15625 196.742188 545.167969 197.039062 525.886719 C 197.039062 517.578125 197.039062 509.273438 197.039062 500.964844 L 197.632812 461.214844 L 197.632812 443.414062 C 197.632812 441.632812 196.742188 441.335938 195.261719 441.632812 L 194.667969 441.929688 C 193.777344 442.226562 193.183594 443.117188 193.183594 444.304688 C 193.183594 500.078125 192.886719 579.582031 192.589844 635.355469 C 192.589844 636.246094 192.589844 638.023438 192.886719 640.992188 C 190.515625 641.585938 187.84375 642.175781 185.46875 643.066406 C 174.492188 646.332031 164.109375 648.703125 153.429688 652.265625 C 117.238281 664.425781 81.9375 677.480469 46.632812 691.71875 L 10.144531 706.257812 C 10.441406 705.367188 10.441406 705.367188 11.035156 705.664062 Z M 610.289062 330.089844 L 608.507812 333.648438 C 608.214844 333.945312 608.214844 334.539062 608.507812 334.835938 C 609.695312 338.394531 609.101562 341.660156 609.101562 344.921875 C 609.101562 425.910156 609.101562 506.898438 609.101562 587.886719 C 609.101562 599.753906 608.804688 620.226562 609.101562 636.539062 C 609.101562 637.726562 608.507812 638.320312 607.324219 638.023438 L 594.566406 634.761719 C 594.269531 634.761719 593.972656 634.464844 593.972656 634.167969 C 593.675781 579.285156 593.082031 524.402344 593.378906 469.519531 C 593.378906 460.621094 593.082031 450.832031 593.082031 442.523438 C 593.378906 394.761719 593.378906 356.789062 592.785156 328.308594 C 592.785156 325.640625 592.191406 322.078125 590.710938 317.332031 C 590.710938 316.738281 590.414062 316.441406 589.820312 316.441406 C 588.039062 315.851562 586.261719 316.148438 584.777344 317.332031 C 584.777344 317.332031 584.777344 317.332031 584.480469 317.628906 C 584.183594 318.222656 584.183594 319.113281 584.777344 319.410156 C 585.667969 320.003906 585.964844 320.894531 585.964844 322.375 C 585.371094 419.089844 585.074219 515.800781 585.371094 612.511719 C 585.371094 618.742188 585.371094 625.269531 585.371094 631.792969 C 585.371094 632.089844 585.074219 632.386719 584.480469 632.386719 L 571.722656 629.421875 C 570.832031 629.125 570.242188 628.53125 570.242188 627.640625 C 570.242188 592.042969 570.242188 556.738281 569.945312 522.03125 C 569.945312 498.890625 569.945312 472.488281 570.535156 442.820312 C 570.535156 442.226562 570.535156 441.042969 570.535156 438.964844 C 570.535156 395.949219 570.535156 352.933594 570.242188 309.621094 C 570.242188 307.542969 570.242188 305.761719 569.945312 303.6875 C 569.945312 303.390625 569.945312 303.09375 570.242188 302.796875 C 570.832031 301.90625 571.722656 301.90625 572.613281 302.203125 L 608.804688 325.9375 C 610.882812 326.828125 611.179688 328.308594 610.289062 330.089844 Z M 558.671875 263.042969 C 558.671875 262.746094 558.671875 262.746094 558.96875 262.449219 C 559.5625 261.859375 559.855469 261.859375 560.746094 262.449219 C 564.605469 265.714844 567.867188 268.976562 572.316406 271.648438 C 582.699219 277.878906 591.898438 286.183594 601.6875 293.007812 C 606.433594 296.269531 610.585938 301.015625 615.925781 304.28125 C 616.222656 304.578125 616.519531 304.875 616.519531 305.46875 L 616.222656 320.894531 C 616.222656 320.894531 616.222656 321.191406 616.222656 321.191406 C 615.925781 321.785156 615.332031 322.078125 614.738281 321.785156 C 612.960938 321.191406 611.179688 320.003906 609.398438 319.113281 C 599.90625 312.882812 590.117188 306.949219 580.625 300.71875 C 578.25 299.238281 576.171875 297.160156 574.097656 295.082031 C 573.800781 294.785156 573.207031 294.785156 572.910156 295.082031 L 571.425781 296.566406 C 571.128906 296.863281 570.535156 297.160156 570.242188 297.160156 C 566.976562 296.863281 563.714844 297.457031 561.042969 298.941406 C 561.042969 298.941406 560.746094 298.941406 560.746094 298.941406 C 560.152344 298.941406 559.5625 298.644531 559.5625 298.050781 C 557.484375 286.480469 558.375 274.316406 558.671875 263.042969 Z M 359.015625 342.253906 L 359.015625 197.777344 L 359.3125 176.714844 L 359.609375 176.714844 C 359.90625 176.714844 359.90625 176.714844 359.90625 177.011719 L 360.203125 196.890625 L 360.5 347 C 360.796875 349.371094 360.796875 351.449219 360.796875 353.824219 C 360.796875 389.421875 360.796875 425.019531 360.796875 460.621094 C 360.796875 461.511719 360.796875 462.105469 361.09375 462.699219 C 361.09375 462.992188 361.390625 463.289062 361.390625 463.882812 C 361.09375 485.242188 361.09375 506.601562 361.09375 527.667969 C 361.09375 543.6875 360.796875 559.410156 360.203125 575.429688 C 360.203125 577.207031 359.90625 578.988281 359.3125 580.769531 C 359.015625 581.660156 359.015625 581.660156 359.015625 580.769531 Z M 307.992188 371.917969 C 307.992188 363.316406 307.992188 354.710938 308.289062 346.109375 C 308.289062 344.625 308.585938 343.144531 309.179688 341.957031 C 309.476562 341.066406 309.773438 341.066406 310.066406 341.957031 C 310.660156 344.328125 311.253906 346.703125 311.253906 349.667969 C 311.253906 383.785156 311.253906 417.902344 310.957031 452.019531 C 310.957031 476.9375 310.957031 501.855469 311.253906 527.074219 C 311.253906 540.71875 310.957031 557.035156 310.957031 571.867188 C 311.253906 584.625 311.253906 597.679688 311.253906 610.433594 C 311.253906 610.433594 311.253906 610.730469 311.253906 610.730469 C 310.957031 611.027344 310.660156 611.324219 310.066406 611.027344 L 309.773438 610.730469 C 308.882812 610.433594 308.289062 609.542969 308.289062 608.359375 C 307.695312 529.445312 307.695312 450.238281 307.992188 371.917969 Z M 277.140625 650.1875 C 291.675781 647.515625 306.507812 644.847656 321.339844 642.472656 C 342.699219 638.617188 364.949219 636.835938 386.605469 634.464844 C 393.132812 633.871094 399.660156 632.683594 406.1875 631.496094 C 408.558594 631.199219 414.492188 632.683594 417.164062 632.980469 C 434.074219 635.355469 450.390625 637.132812 467.59375 640.101562 C 492.8125 644.550781 518.621094 648.109375 543.246094 653.449219 C 553.332031 655.527344 563.714844 657.011719 573.800781 660.273438 C 580.921875 662.351562 587.742188 663.242188 594.566406 665.910156 C 595.457031 666.207031 595.457031 666.503906 594.566406 666.207031 C 570.832031 663.832031 546.804688 661.164062 522.773438 658.789062 C 499.339844 656.417969 471.75 654.636719 440.007812 653.449219 C 400.253906 652.265625 360.5 652.855469 320.453125 655.824219 C 285.445312 658.199219 259.636719 660.570312 243.320312 662.648438 C 230.265625 664.425781 216.917969 665.910156 203.863281 667.394531 C 227.894531 660.273438 252.21875 654.636719 277.140625 650.1875 Z M 214.542969 428.878906 C 214.542969 427.988281 214.839844 427.097656 215.433594 426.503906 L 216.324219 425.316406 C 216.324219 425.316406 216.621094 425.019531 216.621094 425.019531 C 216.917969 425.019531 217.214844 425.316406 217.214844 425.613281 L 216.917969 536.863281 L 216.917969 633.871094 C 216.027344 634.167969 215.433594 634.167969 214.542969 634.464844 L 214.839844 537.753906 Z M 214.542969 428.878906 " fill-opacity="1" fill-rule="nonzero"/></g><path fill="#f4f4f4" d="M 377.410156 153.578125 L 376.816406 153.578125 C 376.519531 153.578125 376.519531 153.578125 376.519531 153.871094 C 376.222656 164.847656 375.628906 176.121094 375.925781 187.097656 C 376.222656 245.246094 376.519531 303.09375 377.113281 361.238281 C 377.113281 369.25 376.816406 380.820312 377.410156 390.90625 C 377.707031 394.167969 376.519531 397.136719 376.816406 400.398438 C 377.113281 405.738281 377.410156 410.1875 377.410156 413.453125 C 377.410156 428.878906 377.113281 453.796875 376.816406 488.210938 C 376.816406 498.296875 377.707031 510.164062 377.410156 521.4375 C 377.113281 543.984375 377.113281 559.707031 376.816406 579.285156 C 376.816406 579.878906 377.113281 580.175781 377.410156 580.472656 L 378.003906 580.769531 C 378.597656 581.066406 378.894531 580.769531 378.894531 580.175781 C 378.597656 556.144531 379.191406 532.414062 378.894531 508.679688 C 378.597656 473.96875 379.785156 438.964844 379.488281 404.253906 C 379.191406 368.65625 379.191406 333.054688 379.191406 297.457031 C 379.191406 273.128906 379.191406 249.695312 378.597656 224.183594 C 378.300781 212.316406 378.300781 200.152344 378.300781 188.285156 C 378.300781 177.011719 378.300781 166.035156 378.300781 154.761719 C 378.300781 154.167969 378.003906 153.871094 377.410156 153.578125 Z M 377.410156 153.578125 " fill-opacity="1" fill-rule="nonzero"/><path fill="#f4f4f4" d="M 341.515625 351.746094 C 341.515625 303.6875 341.21875 255.628906 340.921875 207.273438 C 340.921875 200.746094 340.03125 194.8125 338.84375 188.582031 C 338.84375 188.285156 338.546875 187.988281 338.546875 188.582031 C 337.953125 190.066406 337.65625 191.253906 337.65625 192.734375 C 337.359375 243.167969 337.65625 293.304688 338.84375 343.734375 C 340.03125 398.320312 338.25 484.058594 338.546875 583.734375 C 338.546875 584.328125 338.84375 584.625 339.4375 584.625 C 340.921875 584.921875 342.109375 584.625 342.40625 583.734375 L 342.699219 536.269531 C 342.699219 519.359375 342.40625 502.449219 342.699219 485.242188 C 342.699219 482.574219 342.699219 479.605469 342.699219 476.9375 C 341.8125 458.839844 342.40625 440.152344 342.996094 422.054688 C 343.292969 415.527344 342.40625 408.410156 342.40625 402.476562 C 341.8125 385.566406 341.8125 368.65625 341.515625 351.746094 Z M 341.515625 351.746094 " fill-opacity="1" fill-rule="nonzero"/><path fill="#f4f4f4" d="M 435.554688 222.105469 C 435.554688 221.808594 435.554688 221.808594 435.257812 221.511719 C 431.105469 216.46875 425.171875 212.910156 420.425781 208.457031 C 420.425781 208.457031 420.128906 208.457031 420.128906 208.457031 C 419.832031 208.457031 419.832031 208.753906 419.832031 208.753906 L 419.832031 231.894531 C 419.832031 232.191406 419.832031 232.488281 420.128906 232.488281 L 434.667969 241.683594 C 434.667969 241.683594 434.960938 241.683594 434.960938 241.386719 L 434.960938 222.996094 C 434.960938 222.699219 434.960938 222.402344 435.257812 222.402344 C 435.554688 222.402344 435.554688 222.105469 435.554688 222.105469 Z M 435.554688 222.105469 " fill-opacity="1" fill-rule="nonzero"/><path fill="#f4f4f4" d="M 440.300781 247.023438 L 454.246094 256.222656 C 454.246094 256.222656 454.246094 256.222656 454.542969 256.222656 C 454.839844 256.222656 454.839844 255.925781 455.136719 255.925781 L 456.027344 239.3125 C 456.027344 238.125 455.433594 236.9375 454.542969 236.046875 L 438.226562 222.699219 C 437.929688 222.699219 437.929688 222.402344 437.632812 222.699219 C 437.335938 222.699219 437.335938 223.292969 437.335938 223.589844 C 437.335938 223.886719 437.632812 223.886719 437.632812 223.886719 C 437.632812 223.886719 437.632812 223.886719 437.632812 224.183594 C 437.632812 224.476562 437.632812 224.773438 437.632812 225.070312 C 437.632812 225.367188 437.632812 225.960938 437.632812 226.257812 C 439.710938 231.894531 439.414062 239.3125 439.414062 245.542969 C 439.414062 246.132812 439.710938 246.726562 440.300781 247.023438 Z M 440.300781 247.023438 " fill-opacity="1" fill-rule="nonzero"/><path fill="#f4f4f4" d="M 419.832031 238.125 C 419.832031 238.421875 420.128906 238.71875 420.425781 239.3125 C 423.691406 243.464844 427.25 247.023438 431.105469 249.992188 C 441.191406 257.703125 450.984375 265.714844 461.664062 272.835938 C 471.15625 279.359375 485.097656 286.777344 496.371094 295.082031 C 496.371094 295.082031 496.371094 295.082031 496.667969 295.082031 L 496.964844 294.785156 C 496.964844 294.492188 496.964844 294.492188 496.964844 294.492188 C 494.296875 292.117188 488.066406 287.964844 478.277344 281.4375 C 461.960938 270.460938 442.972656 256.519531 421.316406 239.015625 C 421.019531 238.71875 421.019531 238.71875 420.722656 238.71875 C 420.722656 238.71875 420.722656 238.71875 420.425781 238.71875 C 420.128906 238.125 420.128906 238.125 419.832031 238.125 C 419.832031 237.828125 419.832031 237.828125 419.832031 238.125 Z M 419.832031 238.125 " fill-opacity="1" fill-rule="nonzero"/><path fill="#f4f4f4" d="M 473.527344 269.570312 C 474.121094 269.570312 474.417969 269.273438 474.417969 268.679688 C 474.714844 264.824219 474.714844 260.96875 474.714844 257.40625 C 474.714844 253.253906 475.011719 251.179688 471.453125 248.804688 C 467.59375 246.132812 463.441406 243.464844 459.289062 240.792969 C 459.289062 240.792969 459.289062 240.792969 458.992188 240.792969 C 458.695312 240.792969 458.695312 241.089844 458.695312 241.089844 L 458.398438 258 C 458.398438 258.296875 458.398438 258.59375 458.695312 258.890625 C 462.253906 261.5625 469.375 268.382812 473.527344 269.570312 Z M 473.527344 269.570312 " fill-opacity="1" fill-rule="nonzero"/><path fill="#f4f4f4" d="M 435.851562 264.230469 C 435.851562 263.339844 435.257812 262.449219 434.667969 261.859375 L 421.910156 252.363281 C 421.019531 251.769531 420.425781 252.066406 420.425781 252.957031 C 419.535156 259.1875 419.535156 265.417969 420.128906 271.648438 C 420.128906 272.242188 420.425781 272.539062 420.722656 272.835938 L 434.960938 282.625 C 434.960938 282.625 435.257812 282.625 435.257812 282.625 C 435.554688 282.625 435.851562 282.328125 435.851562 282.03125 Z M 435.851562 264.230469 " fill-opacity="1" fill-rule="nonzero"/><path fill="#f4f4f4" d="M 492.21875 282.921875 C 492.8125 282.921875 493.109375 282.625 493.109375 282.03125 L 494 265.714844 C 494 265.417969 494 265.121094 493.703125 264.824219 L 479.757812 254.738281 C 479.757812 254.738281 479.460938 254.441406 479.164062 254.441406 C 478.570312 254.441406 478.273438 254.738281 478.273438 255.332031 L 477.683594 271.351562 C 477.683594 271.648438 477.683594 271.945312 477.980469 271.945312 L 491.328125 282.03125 C 491.921875 282.921875 491.921875 282.921875 492.21875 282.921875 Z M 492.21875 282.921875 " fill-opacity="1" fill-rule="nonzero"/><path fill="#f4f4f4" d="M 440.597656 285.886719 L 453.652344 294.195312 C 454.542969 294.785156 455.136719 294.492188 455.136719 293.304688 L 455.730469 276.988281 C 455.730469 276.394531 455.433594 276.097656 455.136719 275.800781 L 441.488281 266.605469 C 441.488281 266.605469 441.191406 266.605469 441.191406 266.605469 C 440.894531 266.605469 440.300781 266.902344 440.300781 267.496094 C 440.007812 273.128906 438.820312 279.359375 439.710938 284.699219 C 440.007812 284.996094 440.300781 285.292969 440.597656 285.886719 Z M 440.597656 285.886719 " fill-opacity="1" fill-rule="nonzero"/><path fill="#f4f4f4" d="M 500.523438 269.867188 C 500.523438 269.273438 500.226562 269.273438 499.636719 269.273438 C 499.042969 269.570312 498.746094 270.164062 498.746094 271.054688 C 498.449219 279.359375 498.746094 287.074219 499.339844 294.785156 C 499.636719 299.535156 500.226562 299.535156 500.820312 294.785156 C 501.414062 287.371094 502.304688 277.878906 500.523438 269.867188 Z M 500.523438 269.867188 " fill-opacity="1" fill-rule="nonzero"/><path fill="#f4f4f4" d="M 459.585938 297.753906 L 472.640625 307.246094 C 473.824219 308.136719 474.417969 307.839844 474.417969 306.355469 L 474.417969 290.335938 C 474.417969 289.445312 473.824219 288.558594 472.933594 287.964844 L 459.289062 279.359375 C 459.289062 279.359375 458.992188 279.359375 458.695312 279.359375 C 458.398438 279.359375 457.804688 279.65625 458.101562 280.25 L 458.992188 290.632812 Z M 459.585938 297.753906 " fill-opacity="1" fill-rule="nonzero"/><path fill="#f4f4f4" d="M 490.4375 318.816406 C 491.625 319.707031 492.21875 319.410156 492.515625 317.925781 L 493.109375 301.609375 C 493.109375 301.015625 492.8125 300.128906 492.21875 299.832031 L 481.242188 292.710938 C 480.945312 292.414062 480.351562 292.414062 480.054688 292.710938 C 479.460938 293.304688 478.867188 293.898438 478.867188 295.082031 C 478.277344 299.535156 477.980469 303.984375 478.277344 308.433594 C 478.277344 309.027344 478.570312 309.324219 478.867188 309.621094 Z M 490.4375 318.816406 " fill-opacity="1" fill-rule="nonzero"/><path fill="#f4f4f4" d="M 421.910156 294.785156 C 421.910156 294.785156 421.613281 294.785156 421.613281 294.785156 C 421.316406 294.785156 421.019531 295.082031 421.019531 295.378906 L 421.019531 316.738281 C 421.019531 317.035156 421.019531 317.332031 421.316406 317.332031 L 434.667969 325.34375 C 434.667969 325.34375 434.960938 325.34375 434.960938 325.34375 C 435.257812 325.34375 435.554688 325.046875 435.554688 324.75 L 436.445312 305.171875 C 436.445312 304.875 436.445312 304.875 436.148438 304.578125 Z M 421.910156 294.785156 " fill-opacity="1" fill-rule="nonzero"/><path fill="#f4f4f4" d="M 498.152344 304.28125 L 499.042969 326.828125 C 499.042969 326.828125 499.042969 327.125 499.042969 327.125 L 499.933594 328.605469 C 499.933594 328.902344 500.226562 328.902344 500.523438 328.902344 C 500.820312 328.902344 501.117188 328.605469 501.117188 328.308594 L 501.117188 307.246094 C 501.117188 307.246094 501.117188 306.949219 501.117188 306.949219 L 499.636719 303.984375 C 499.636719 303.6875 499.339844 303.6875 499.042969 303.6875 C 498.449219 303.6875 498.152344 303.984375 498.152344 304.28125 Z M 498.152344 304.28125 " fill-opacity="1" fill-rule="nonzero"/><path fill="#f4f4f4" d="M 455.730469 317.925781 C 450.6875 313.476562 445.347656 309.917969 439.710938 307.246094 C 438.523438 307.246094 438.226562 308.136719 438.820312 309.324219 C 440.007812 312.289062 439.710938 317.035156 439.414062 320.003906 L 439.710938 325.9375 C 439.710938 326.53125 440.007812 326.828125 440.300781 327.125 C 443.269531 330.089844 446.53125 332.167969 450.390625 333.351562 C 452.167969 333.945312 453.058594 335.132812 454.839844 336.023438 C 455.433594 336.320312 455.730469 336.320312 455.433594 335.429688 C 455.433594 334.242188 455.136719 333.054688 454.542969 332.167969 C 454.246094 331.574219 454.246094 331.277344 454.542969 330.683594 C 455.730469 327.417969 456.617188 323.859375 456.914062 320.300781 C 456.914062 319.410156 456.617188 318.519531 455.730469 317.925781 Z M 455.730469 317.925781 " fill-opacity="1" fill-rule="nonzero"/><path fill="#f4f4f4" d="M 458.398438 337.210938 C 458.398438 337.804688 458.695312 338.394531 459.289062 338.691406 L 474.714844 347 C 474.714844 347 475.011719 347 475.011719 347 C 475.308594 347 475.605469 346.703125 475.605469 346.40625 C 475.605469 341.660156 475.308594 336.914062 475.308594 332.167969 C 475.308594 326.828125 464.332031 322.375 460.179688 320.300781 C 459.882812 320.300781 459.882812 320.300781 459.585938 320.300781 C 458.992188 320.300781 458.398438 320.894531 458.398438 321.488281 Z M 458.398438 337.210938 " fill-opacity="1" fill-rule="nonzero"/><path fill="#f4f4f4" d="M 420.128906 338.101562 L 434.960938 347.890625 C 434.960938 347.890625 435.257812 347.890625 435.257812 347.890625 C 435.554688 347.890625 435.851562 347.59375 435.851562 347.296875 L 435.554688 332.757812 C 435.554688 332.464844 435.554688 332.167969 435.257812 332.167969 L 421.019531 323.265625 C 421.019531 323.265625 420.722656 323.265625 420.722656 323.265625 C 420.425781 323.265625 420.128906 323.5625 419.832031 323.859375 L 419.535156 337.507812 C 419.832031 337.507812 419.832031 337.804688 420.128906 338.101562 Z M 420.128906 338.101562 " fill-opacity="1" fill-rule="nonzero"/><path fill="#f4f4f4" d="M 494.589844 347 C 493.703125 345.515625 493.109375 344.03125 493.109375 342.253906 C 493.109375 341.066406 492.21875 339.878906 491.328125 339.582031 L 479.757812 333.351562 C 478.570312 332.757812 477.980469 333.054688 477.980469 334.539062 L 478.273438 348.1875 C 478.273438 348.78125 478.570312 349.074219 478.867188 349.371094 C 483.617188 352.636719 488.660156 355.304688 494 357.085938 C 494 357.085938 494.296875 357.085938 494.296875 357.085938 C 494.589844 357.085938 494.886719 356.492188 494.589844 356.195312 C 493.703125 353.527344 493.703125 350.855469 494.589844 348.1875 C 494.886719 347.890625 494.886719 347.296875 494.589844 347 Z M 494.589844 347 " fill-opacity="1" fill-rule="nonzero"/><path fill="#f4f4f4" d="M 439.710938 349.667969 L 455.433594 357.976562 C 455.433594 357.976562 455.433594 357.976562 455.730469 357.976562 C 456.027344 357.976562 456.324219 357.679688 456.324219 357.382812 L 456.324219 342.847656 C 456.324219 342.550781 456.324219 342.550781 456.027344 342.550781 L 440.007812 333.054688 C 440.007812 333.054688 439.710938 333.054688 439.710938 333.054688 C 439.414062 333.054688 439.117188 333.351562 439.414062 333.648438 L 439.710938 349.074219 C 439.414062 349.371094 439.414062 349.667969 439.710938 349.667969 Z M 439.710938 349.667969 " fill-opacity="1" fill-rule="nonzero"/><path fill="#f4f4f4" d="M 475.011719 354.121094 L 460.179688 345.8125 C 460.179688 345.8125 459.882812 345.8125 459.882812 345.8125 C 459.289062 345.8125 458.992188 346.109375 458.992188 346.703125 L 458.398438 359.164062 C 458.398438 359.460938 458.695312 360.050781 458.992188 360.050781 L 475.011719 367.765625 C 475.011719 367.765625 475.308594 367.765625 475.605469 367.765625 C 476.199219 367.765625 476.496094 367.171875 476.496094 366.875 L 475.902344 355.007812 C 475.605469 354.710938 475.308594 354.417969 475.011719 354.121094 Z M 475.011719 354.121094 " fill-opacity="1" fill-rule="nonzero"/><path fill="#f4f4f4" d="M 497.558594 347.890625 C 497.261719 360.050781 497.261719 370.140625 497.261719 378.148438 C 497.261719 379.929688 498.152344 381.414062 499.636719 382.300781 C 499.933594 382.597656 500.226562 382.597656 500.226562 382.003906 C 500.820312 367.46875 501.117188 356.789062 499.636719 347.59375 C 499.636719 347.296875 499.339844 347 498.746094 347 L 498.449219 347 C 498.152344 347 497.855469 347.296875 497.558594 347.890625 Z M 497.558594 347.890625 " fill-opacity="1" fill-rule="nonzero"/><path fill="#f4f4f4" d="M 435.554688 382.300781 C 436.148438 382.300781 436.445312 382.003906 436.445312 381.414062 L 436.445312 366.875 C 436.445312 365.984375 435.851562 365.390625 435.257812 365.097656 C 429.917969 363.019531 425.46875 360.050781 421.613281 356.195312 C 421.316406 355.898438 421.019531 355.898438 421.019531 356.492188 C 420.425781 362.128906 420.425781 367.46875 420.425781 373.105469 C 420.425781 378.742188 431.105469 380.820312 435.554688 382.300781 Z M 435.554688 382.300781 " fill-opacity="1" fill-rule="nonzero"/><path fill="#f4f4f4" d="M 491.03125 362.425781 L 480.351562 356.195312 C 480.054688 356.195312 480.054688 355.898438 479.757812 355.898438 C 478.867188 355.898438 478.273438 356.492188 478.273438 357.382812 L 478.273438 368.0625 C 478.273438 368.65625 478.570312 368.953125 478.867188 369.25 C 481.539062 371.027344 482.132812 370.730469 483.617188 373.699219 C 483.910156 373.996094 484.207031 374.292969 484.503906 374.292969 L 491.921875 377.257812 C 492.21875 377.554688 492.515625 377.257812 492.515625 376.960938 L 492.515625 365.6875 C 492.8125 363.910156 492.21875 363.019531 491.03125 362.425781 Z M 491.03125 362.425781 " fill-opacity="1" fill-rule="nonzero"/><path fill="#f4f4f4" d="M 439.117188 384.378906 L 455.433594 391.5 C 455.433594 391.5 455.730469 391.5 455.730469 391.5 C 456.027344 391.5 456.324219 391.203125 456.324219 390.90625 L 456.324219 375.480469 C 456.324219 375.183594 456.324219 374.886719 456.027344 374.886719 L 440.007812 367.171875 C 440.007812 367.171875 439.710938 367.171875 439.710938 367.171875 C 439.414062 367.171875 439.117188 367.46875 439.117188 367.765625 L 438.820312 383.785156 C 438.820312 383.785156 439.117188 384.082031 439.117188 384.378906 Z M 439.117188 384.378906 " fill-opacity="1" fill-rule="nonzero"/><path fill="#f4f4f4" d="M 475.308594 383.785156 L 460.179688 376.960938 C 460.179688 376.960938 459.882812 376.960938 459.882812 376.960938 C 459.585938 376.960938 459.289062 377.257812 459.289062 377.554688 L 459.585938 393.277344 C 459.585938 393.574219 459.882812 393.871094 459.882812 393.871094 L 475.011719 400.695312 C 475.011719 400.695312 475.308594 400.695312 475.308594 400.695312 C 475.605469 400.695312 475.902344 400.398438 475.902344 400.101562 L 475.605469 384.378906 C 475.605469 384.082031 475.605469 384.082031 475.308594 383.785156 Z M 475.308594 383.785156 " fill-opacity="1" fill-rule="nonzero"/><path fill="#f4f4f4" d="M 421.019531 396.246094 C 424.28125 398.914062 430.808594 400.992188 434.960938 402.476562 C 435.257812 402.476562 435.257812 402.476562 435.257812 402.179688 L 435.257812 389.125 C 435.257812 388.828125 434.960938 388.53125 434.960938 388.53125 L 421.613281 381.414062 C 421.613281 381.414062 421.316406 381.414062 421.316406 381.414062 C 421.019531 381.414062 420.722656 381.707031 420.722656 382.003906 C 421.316406 386.457031 420.425781 390.3125 420.425781 394.761719 C 420.425781 395.652344 420.425781 395.949219 421.019531 396.246094 Z M 421.019531 396.246094 " fill-opacity="1" fill-rule="nonzero"/><path fill="#f4f4f4" d="M 493.40625 393.277344 L 479.164062 386.160156 C 479.164062 386.160156 479.164062 386.160156 478.867188 386.160156 C 478.570312 386.160156 478.570312 386.457031 478.570312 386.457031 L 478.570312 402.179688 C 478.570312 402.476562 478.570312 402.476562 478.867188 402.476562 L 493.40625 409.296875 C 493.40625 409.296875 493.40625 409.296875 493.703125 409.296875 C 494 409.296875 494 409 494 409 L 494 393.574219 C 493.703125 393.574219 493.40625 393.277344 493.40625 393.277344 Z M 493.40625 393.277344 " fill-opacity="1" fill-rule="nonzero"/><path fill="#f4f4f4" d="M 438.226562 390.015625 L 438.226562 403.957031 C 438.226562 404.253906 438.226562 404.253906 438.523438 404.550781 L 455.433594 411.96875 C 455.433594 411.96875 455.433594 411.96875 455.730469 411.96875 C 456.027344 411.96875 456.324219 411.671875 456.324219 411.375 L 456.324219 398.914062 C 456.324219 398.617188 456.324219 398.617188 456.027344 398.320312 L 439.117188 389.421875 C 439.117188 389.421875 438.820312 389.421875 438.820312 389.421875 C 438.523438 389.71875 438.226562 389.71875 438.226562 390.015625 Z M 438.226562 390.015625 " fill-opacity="1" fill-rule="nonzero"/><path fill="#f4f4f4" d="M 499.339844 433.921875 C 499.933594 433.921875 500.523438 424.726562 500.523438 413.453125 L 500.523438 396.839844 C 500.523438 396.542969 500.226562 396.246094 499.933594 396.246094 L 498.152344 396.246094 C 497.855469 396.246094 497.558594 396.542969 497.558594 396.839844 L 497.558594 413.453125 C 497.558594 424.726562 497.855469 433.625 498.449219 433.921875 Z M 499.339844 433.921875 " fill-opacity="1" fill-rule="nonzero"/><path fill="#f4f4f4" d="M 458.398438 412.859375 C 463.738281 416.417969 469.375 419.089844 475.308594 421.460938 C 475.902344 421.757812 475.902344 421.460938 475.902344 420.867188 C 475.605469 417.605469 475.605469 414.046875 475.308594 410.78125 C 475.011719 404.550781 465.519531 401.289062 460.773438 400.398438 C 459.289062 400.101562 458.695312 400.695312 458.695312 401.882812 L 458.398438 410.484375 C 458.398438 410.78125 458.398438 411.078125 458.101562 411.375 C 458.101562 411.375 457.804688 411.671875 457.804688 411.671875 C 458.101562 412.5625 458.101562 412.859375 458.398438 412.859375 Z M 458.398438 412.859375 " fill-opacity="1" fill-rule="nonzero"/><path fill="#f4f4f4" d="M 478.570312 422.648438 L 491.625 428.582031 C 491.625 428.582031 491.921875 428.582031 491.921875 428.582031 C 492.515625 428.582031 492.8125 428.285156 492.8125 427.691406 L 493.109375 416.121094 C 493.109375 415.824219 492.8125 415.527344 492.515625 415.230469 L 479.460938 408.703125 C 479.460938 408.703125 479.164062 408.703125 479.164062 408.703125 C 478.570312 408.703125 478.277344 409 478.277344 409.59375 L 477.980469 422.054688 C 477.980469 422.054688 478.273438 422.351562 478.570312 422.648438 Z M 478.570312 422.648438 " fill-opacity="1" fill-rule="nonzero"/><path fill="#f4f4f4" d="M 421.019531 431.546875 L 433.480469 436.886719 C 433.777344 436.886719 434.074219 436.886719 434.074219 436.886719 C 434.960938 436.886719 435.851562 435.996094 435.851562 435.109375 L 435.851562 422.351562 C 435.851562 421.164062 435.257812 420.273438 434.074219 419.679688 L 420.425781 413.15625 C 420.425781 413.15625 420.425781 413.15625 420.128906 413.15625 C 419.832031 413.15625 419.535156 413.453125 419.535156 413.453125 L 419.535156 429.175781 C 419.832031 430.363281 420.425781 431.25 421.019531 431.546875 Z M 421.019531 431.546875 " fill-opacity="1" fill-rule="nonzero"/><path fill="#f4f4f4" d="M 456.617188 441.929688 L 456.027344 430.65625 C 456.027344 429.769531 455.433594 428.878906 454.542969 428.582031 L 440.007812 422.054688 C 439.414062 421.757812 439.117188 422.054688 439.117188 422.648438 C 439.117188 427.097656 439.414062 431.25 439.710938 435.703125 C 439.710938 436.886719 440.597656 437.777344 442.082031 438.667969 C 446.53125 441.042969 450.984375 442.523438 455.136719 443.414062 C 456.027344 443.710938 456.617188 443.117188 456.617188 441.929688 Z M 456.617188 441.929688 " fill-opacity="1" fill-rule="nonzero"/><path fill="#f4f4f4" d="M 475.605469 437.183594 C 475.605469 436.886719 475.308594 436.589844 475.011719 436.292969 L 460.179688 430.65625 C 460.179688 430.65625 459.882812 430.65625 459.882812 430.65625 C 459.289062 430.65625 458.992188 431.25 458.992188 431.546875 L 459.289062 444.304688 C 459.289062 444.601562 459.585938 444.898438 459.882812 445.195312 L 475.011719 451.425781 C 475.011719 451.425781 475.308594 451.425781 475.308594 451.425781 C 475.902344 451.425781 476.199219 450.832031 476.199219 450.535156 Z M 475.605469 437.183594 " fill-opacity="1" fill-rule="nonzero"/><path fill="#f4f4f4" d="M 419.832031 449.644531 C 419.832031 449.941406 420.128906 450.238281 420.425781 450.238281 L 436.445312 455.875 C 436.742188 455.875 437.039062 455.875 437.335938 455.578125 C 437.632812 455.28125 437.632812 454.6875 437.335938 454.390625 C 437.039062 454.09375 437.039062 454.09375 436.742188 453.796875 C 436.445312 453.5 436.445312 452.90625 436.445312 452.90625 L 436.148438 445.492188 C 436.148438 444.304688 435.554688 443.414062 434.371094 442.820312 L 420.425781 436.589844 C 420.425781 436.589844 420.128906 436.589844 420.128906 436.886719 Z M 419.832031 449.644531 " fill-opacity="1" fill-rule="nonzero"/><path fill="#f4f4f4" d="M 492.21875 443.117188 L 478.867188 437.777344 C 478.867188 437.777344 478.570312 437.777344 478.570312 437.777344 C 478.273438 437.777344 477.980469 438.074219 477.980469 438.371094 L 478.273438 450.535156 C 478.273438 451.128906 478.570312 451.722656 478.867188 452.019531 C 483.023438 455.28125 487.769531 457.359375 493.109375 458.542969 C 493.40625 458.542969 493.703125 458.246094 493.703125 457.949219 L 493.40625 444.898438 C 493.703125 444.007812 493.109375 443.414062 492.21875 443.117188 Z M 492.21875 443.117188 " fill-opacity="1" fill-rule="nonzero"/><path fill="#f4f4f4" d="M 439.710938 444.304688 C 439.117188 444.304688 438.523438 444.898438 438.523438 445.492188 L 439.117188 455.28125 C 439.117188 456.46875 439.710938 457.359375 440.894531 457.949219 C 445.347656 460.324219 450.390625 461.808594 455.433594 462.992188 L 456.027344 450.535156 C 451.574219 447.863281 446.234375 445.789062 440.300781 444.304688 C 440.007812 444.304688 439.710938 444.304688 439.710938 444.304688 Z M 439.710938 444.304688 " fill-opacity="1" fill-rule="nonzero"/><path fill="#f4f4f4" d="M 498.449219 480.792969 C 498.449219 481.089844 498.746094 481.089844 499.042969 481.089844 L 499.339844 481.089844 C 499.636719 481.089844 499.933594 480.792969 499.933594 480.199219 C 500.226562 469.816406 500.523438 460.027344 500.820312 450.238281 C 500.820312 448.457031 500.523438 446.972656 499.339844 446.085938 C 499.339844 446.085938 499.042969 445.789062 498.746094 445.789062 C 498.449219 445.789062 498.152344 446.085938 498.152344 446.679688 Z M 498.449219 480.792969 " fill-opacity="1" fill-rule="nonzero"/><path fill="#f4f4f4" d="M 458.992188 458.839844 L 459.289062 454.6875 L 459.289062 464.773438 C 463.738281 467.742188 468.78125 469.816406 473.824219 471.300781 C 474.417969 471.300781 474.714844 471.597656 474.714844 471.300781 C 475.308594 471.003906 475.605469 470.410156 475.605469 469.519531 L 475.011719 459.433594 C 475.011719 458.246094 474.417969 457.359375 473.230469 457.0625 L 459.882812 451.425781 C 459.882812 451.425781 459.585938 451.425781 459.585938 451.425781 C 458.992188 451.425781 458.695312 452.019531 458.695312 452.609375 L 458.695312 456.765625 Z M 458.992188 458.839844 " fill-opacity="1" fill-rule="nonzero"/><path fill="#f4f4f4" d="M 478.273438 470.707031 C 478.273438 471.300781 478.570312 471.894531 479.164062 471.894531 L 491.03125 477.53125 C 491.328125 477.53125 491.328125 477.53125 491.625 477.53125 C 492.515625 477.53125 493.109375 476.9375 493.109375 476.046875 L 493.109375 465.367188 C 493.109375 464.773438 492.8125 464.179688 492.21875 464.179688 L 480.054688 458.839844 C 479.757812 458.839844 479.757812 458.839844 479.460938 458.839844 C 478.570312 458.839844 477.980469 459.433594 477.980469 460.324219 Z M 478.273438 470.707031 " fill-opacity="1" fill-rule="nonzero"/><path fill="#f4f4f4" d="M 421.019531 483.761719 C 425.765625 486.429688 430.808594 487.023438 435.257812 488.507812 C 436.445312 484.652344 436.742188 480.199219 436.148438 474.859375 C 436.148438 474.5625 436.148438 473.96875 435.851562 473.675781 C 435.554688 473.378906 435.257812 473.082031 434.667969 472.785156 C 430.214844 471.003906 425.46875 469.222656 421.019531 467.148438 C 420.722656 466.851562 420.425781 467.148438 420.425781 467.445312 L 420.425781 482.574219 C 420.425781 483.167969 420.425781 483.464844 421.019531 483.761719 Z M 421.019531 483.761719 " fill-opacity="1" fill-rule="nonzero"/><path fill="#f4f4f4" d="M 456.324219 479.902344 L 440.304688 474.5625 C 439.710938 474.265625 439.414062 474.5625 439.117188 475.15625 C 438.820312 475.75 438.820312 476.640625 439.117188 477.53125 L 440.304688 489.695312 C 445.050781 491.472656 449.796875 493.253906 454.246094 494.441406 C 455.433594 494.738281 456.027344 494.441406 456.324219 494.144531 Z M 456.324219 479.902344 " fill-opacity="1" fill-rule="nonzero"/><path fill="#f4f4f4" d="M 476.496094 499.1875 L 476.496094 488.804688 C 476.496094 487.023438 475.605469 485.835938 473.824219 485.242188 L 459.289062 480.792969 L 459.289062 494.144531 C 459.289062 494.738281 459.585938 495.035156 460.179688 495.332031 C 464.628906 497.703125 469.671875 499.484375 474.714844 500.671875 C 474.714844 500.671875 475.011719 500.671875 475.011719 500.671875 C 475.605469 500.964844 476.496094 500.078125 476.496094 499.1875 Z M 476.496094 499.1875 " fill-opacity="1" fill-rule="nonzero"/><path fill="#f4f4f4" d="M 494.589844 505.714844 L 494.589844 492.957031 C 494.589844 492.660156 494.296875 492.066406 494 492.066406 L 479.460938 487.617188 C 479.460938 487.617188 479.164062 487.617188 479.164062 487.617188 C 478.570312 487.617188 478.273438 487.914062 478.273438 488.507812 L 478.570312 501.558594 C 478.570312 501.855469 478.867188 502.449219 479.164062 502.449219 L 493.109375 506.601562 C 493.109375 506.601562 493.40625 506.601562 493.40625 506.601562 C 494 506.601562 494.589844 506.308594 494.589844 505.714844 Z M 494.589844 505.714844 " fill-opacity="1" fill-rule="nonzero"/><path fill="#f4f4f4" d="M 420.722656 505.417969 L 435.257812 508.976562 C 435.554688 508.976562 435.851562 508.679688 435.851562 508.382812 L 435.554688 495.035156 C 435.554688 494.738281 435.554688 494.738281 435.257812 494.738281 L 421.019531 490.878906 C 420.722656 490.878906 420.425781 491.175781 420.425781 491.472656 L 420.425781 505.121094 C 420.425781 505.121094 420.425781 505.417969 420.722656 505.417969 Z M 420.722656 505.417969 " fill-opacity="1" fill-rule="nonzero"/><path fill="#f4f4f4" d="M 499.933594 533.894531 C 500.523438 533.894531 501.117188 516.097656 501.117188 494.441406 L 501.117188 494.144531 C 501.117188 493.847656 500.820312 493.847656 500.820312 493.847656 L 499.042969 493.847656 C 498.746094 493.847656 498.746094 494.144531 498.746094 494.144531 L 498.746094 494.441406 C 498.746094 494.441406 498.746094 494.441406 498.746094 494.738281 C 498.746094 516.691406 499.042969 534.191406 499.636719 534.191406 L 499.933594 534.191406 Z M 499.933594 533.894531 " fill-opacity="1" fill-rule="nonzero"/><path fill="#f4f4f4" d="M 456.324219 514.316406 L 455.730469 503.042969 C 455.730469 502.746094 455.433594 502.449219 455.136719 502.152344 L 440.597656 495.921875 C 440.597656 495.921875 440.304688 495.921875 440.304688 495.921875 C 439.710938 495.921875 439.414062 496.21875 439.414062 496.8125 L 439.117188 509.867188 C 439.117188 510.164062 439.414062 510.757812 439.710938 510.757812 L 455.136719 515.207031 C 455.136719 515.207031 455.433594 515.207031 455.433594 515.207031 C 456.027344 515.207031 456.324219 514.910156 456.324219 514.316406 Z M 456.324219 514.316406 " fill-opacity="1" fill-rule="nonzero"/><path fill="#f4f4f4" d="M 475.011719 507.492188 L 460.476562 502.746094 C 460.476562 502.746094 460.179688 502.746094 460.179688 502.746094 C 459.585938 502.746094 459.289062 503.339844 459.289062 503.636719 L 459.882812 515.800781 C 459.882812 516.097656 460.179688 516.691406 460.476562 516.691406 L 474.714844 520.84375 C 474.714844 520.84375 475.011719 520.84375 475.011719 520.84375 C 475.605469 520.84375 475.902344 520.25 475.902344 519.953125 L 475.902344 508.382812 C 475.605469 508.085938 475.308594 507.789062 475.011719 507.492188 Z M 475.011719 507.492188 " fill-opacity="1" fill-rule="nonzero"/><path fill="#f4f4f4" d="M 493.703125 526.480469 L 493.40625 514.910156 C 493.40625 514.613281 493.109375 514.019531 492.8125 514.019531 L 479.460938 508.679688 C 479.460938 508.679688 479.164062 508.679688 479.164062 508.679688 C 478.570312 508.679688 478.273438 509.273438 478.273438 509.570312 L 478.570312 521.140625 C 478.570312 521.4375 478.867188 522.03125 479.164062 522.03125 L 492.515625 527.667969 C 492.515625 527.667969 492.8125 527.667969 492.8125 527.667969 C 493.109375 527.667969 493.703125 527.074219 493.703125 526.480469 Z M 493.703125 526.480469 " fill-opacity="1" fill-rule="nonzero"/><path fill="#f4f4f4" d="M 421.019531 532.117188 L 433.480469 534.785156 C 433.777344 534.785156 433.777344 534.785156 434.074219 534.785156 C 435.554688 534.785156 436.742188 533.597656 436.742188 532.117188 L 436.742188 523.511719 C 436.742188 522.917969 436.445312 522.625 435.851562 522.328125 L 422.207031 518.46875 C 421.910156 518.46875 421.613281 518.765625 421.316406 519.0625 L 420.425781 531.226562 C 420.425781 531.820312 420.722656 532.117188 421.019531 532.117188 Z M 421.019531 532.117188 " fill-opacity="1" fill-rule="nonzero"/><path fill="#f4f4f4" d="M 440.300781 536.566406 L 453.652344 539.828125 C 454.839844 540.125 455.433594 539.53125 455.433594 538.347656 L 455.433594 528.851562 C 455.433594 527.667969 454.839844 526.777344 453.652344 526.480469 L 440.300781 523.511719 C 438.820312 523.214844 438.226562 523.808594 438.226562 524.996094 L 437.929688 533.597656 C 438.523438 535.082031 439.117188 536.269531 440.300781 536.566406 Z M 440.300781 536.566406 " fill-opacity="1" fill-rule="nonzero"/><path fill="#f4f4f4" d="M 460.179688 541.015625 L 476.199219 544.28125 C 476.199219 544.28125 476.199219 544.28125 476.496094 544.28125 C 477.089844 544.28125 477.386719 543.6875 477.386719 543.390625 L 477.089844 533.597656 C 477.089844 533.304688 476.792969 532.710938 476.496094 532.710938 L 459.882812 527.964844 C 459.882812 527.964844 459.585938 527.964844 459.585938 527.964844 C 458.992188 527.964844 458.695312 528.554688 458.695312 528.851562 L 459.289062 540.125 C 459.585938 540.421875 459.882812 541.015625 460.179688 541.015625 Z M 460.179688 541.015625 " fill-opacity="1" fill-rule="nonzero"/><path fill="#f4f4f4" d="M 480.648438 533.597656 C 480.648438 533.597656 480.351562 533.597656 480.648438 533.597656 C 479.757812 533.597656 479.164062 534.191406 479.164062 534.785156 L 479.460938 544.574219 C 479.460938 545.167969 479.757812 545.464844 480.351562 545.761719 L 490.734375 549.027344 C 490.734375 549.027344 491.03125 549.027344 491.03125 549.027344 C 491.625 549.027344 492.21875 548.433594 492.21875 547.839844 L 492.8125 536.566406 C 492.8125 535.972656 492.515625 535.378906 491.921875 535.378906 Z M 480.648438 533.597656 " fill-opacity="1" fill-rule="nonzero"/><path fill="#f4f4f4" d="M 642.625 687.566406 C 621.265625 684.601562 598.71875 682.523438 577.0625 679.558594 C 565.789062 678.074219 550.363281 677.183594 543.539062 676.589844 C 535.234375 675.699219 526.632812 675.105469 518.324219 674.515625 C 469.375 671.546875 420.425781 670.65625 371.476562 671.546875 C 359.90625 671.84375 338.546875 671.84375 322.230469 672.734375 C 270.316406 675.402344 210.984375 680.445312 155.507812 687.269531 C 153.726562 687.566406 153.726562 687.863281 155.507812 688.160156 C 155.507812 688.160156 156.398438 688.160156 157.289062 688.160156 C 166.78125 687.269531 177.460938 687.269531 186.359375 686.378906 C 227.003906 682.820312 267.347656 680.148438 307.992188 678.371094 C 334.691406 676.886719 356.050781 677.183594 380.082031 675.996094 C 382.75 675.996094 386.902344 675.996094 392.539062 675.996094 C 398.175781 675.996094 404.109375 675.699219 409.152344 675.699219 C 418.644531 675.996094 428.140625 675.996094 437.632812 675.996094 C 446.828125 675.996094 461.367188 676.886719 472.933594 676.886719 C 484.503906 676.886719 496.074219 678.074219 507.644531 678.667969 C 515.0625 678.964844 523.664062 679.558594 533.15625 680.148438 C 544.429688 681.039062 556.296875 680.742188 567.570312 681.929688 L 656.570312 689.347656 C 656.570312 689.347656 656.867188 689.347656 656.867188 689.347656 C 656.867188 689.347656 657.164062 689.050781 656.867188 688.753906 C 656.867188 688.753906 656.570312 688.457031 656.570312 688.457031 C 652.117188 688.753906 647.371094 688.457031 642.625 687.566406 Z M 642.625 687.566406 " fill-opacity="1" fill-rule="nonzero"/><g clip-path="url(#a9f06b2403)"><path fill="#f4f4f4" d="M 809.347656 713.96875 L 747.050781 708.035156 C 724.207031 705.664062 701.066406 703.289062 677.929688 701.214844 C 673.183594 700.917969 666.65625 700.917969 661.019531 700.027344 C 653.601562 699.136719 649.449219 698.542969 648.558594 698.246094 C 621.859375 695.875 595.160156 693.5 568.164062 691.421875 C 527.816406 689.347656 486.285156 688.160156 419.832031 687.566406 C 392.242188 687.566406 356.050781 687.566406 311.550781 688.160156 C 274.46875 689.347656 237.683594 690.535156 200.898438 693.796875 C 196.742188 694.09375 191.699219 694.09375 188.4375 694.390625 C 158.769531 697.652344 129.105469 700.324219 99.4375 702.992188 C 86.089844 704.179688 72.738281 705.664062 59.390625 707.441406 C 40.402344 709.816406 21.417969 710.410156 2.429688 712.191406 C 1.835938 712.191406 1.242188 712.191406 1.242188 712.484375 C 0.355469 712.78125 0.355469 713.078125 1.539062 713.078125 L 19.042969 713.078125 C 58.796875 711.003906 97.957031 709.519531 137.410156 708.035156 C 189.328125 706.257812 240.351562 703.289062 304.136719 702.101562 C 386.902344 700.917969 469.375 701.214844 552.144531 703.585938 C 599.015625 704.773438 646.1875 707.441406 693.058594 709.222656 C 722.425781 710.410156 751.5 711.894531 780.871094 712.78125 L 809.644531 713.671875 C 809.644531 714.265625 809.644531 714.265625 809.347656 713.96875 C 809.644531 713.96875 809.644531 713.96875 809.347656 713.96875 C 809.644531 713.96875 809.644531 713.96875 809.347656 713.96875 Z M 809.347656 713.96875 " fill-opacity="1" fill-rule="nonzero"/></g></svg>